<svg width="265" height="120" viewBox="0 0 265 120" fill="none" xmlns="http://www.w3.org/2000/svg">
<g filter="url(#filter0_d_223_7438)">
<rect x="30" y="26" width="205" height="60" rx="10" fill="white"/>
</g>
<path d="M74.5748 54.2446C74.5934 52.823 74.9766 51.4292 75.6887 50.1929C76.4008 48.9565 77.4187 47.9177 78.6477 47.1731C77.867 46.0743 76.837 45.17 75.6395 44.5321C74.4421 43.8942 73.1102 43.5402 71.7496 43.4982C68.8474 43.198 66.0337 45.2097 64.5547 45.2097C63.0472 45.2097 60.7701 43.528 58.3179 43.5778C56.7319 43.6283 55.1862 44.0828 53.8314 44.897C52.4766 45.7112 51.359 46.8573 50.5873 48.2237C47.2446 53.9265 49.738 62.3076 52.9399 66.9175C54.5418 69.1747 56.4141 71.6961 58.8639 71.6066C61.2612 71.5087 62.1567 70.1002 65.0503 70.1002C67.9173 70.1002 68.7573 71.6066 71.2568 71.5498C73.8293 71.5087 75.4502 69.2826 76.9958 67.004C78.1469 65.3955 79.0326 63.6179 79.6202 61.7368C78.1257 61.1139 76.8503 60.0713 75.9531 58.739C75.0559 57.4067 74.5765 55.8436 74.5748 54.2446ZM69.8536 40.4667C71.2562 38.8074 71.9473 36.6747 71.7799 34.5215C69.637 34.7433 67.6577 35.7526 66.2362 37.3481C65.5411 38.1276 65.0088 39.0344 64.6696 40.0167C64.3304 40.999 64.191 42.0376 64.2594 43.073C65.3312 43.0839 66.3916 42.855 67.3606 42.4035C68.3297 41.952 69.1821 41.2897 69.8538 40.4665L69.8536 40.4667ZM103.336 66.1191H95.4693L93.5801 71.6161H90.2477L97.6994 51.278H101.161L108.613 71.6161H105.224L103.336 66.1191ZM96.2841 63.5823H102.52L99.4459 54.6609H99.3598L96.2841 63.5823ZM124.706 64.203C124.706 68.8108 122.203 71.7712 118.426 71.7712C117.469 71.8205 116.518 71.6034 115.681 71.1446C114.843 70.6858 114.154 70.0039 113.692 69.177H113.62V76.5215H110.531V56.7881H113.521V59.2544H113.578C114.062 58.4315 114.762 57.7531 115.606 57.2915C116.45 56.8299 117.405 56.6023 118.369 56.633C122.188 56.633 124.706 59.6079 124.706 64.2028V64.203ZM121.531 64.203C121.531 61.2009 119.957 59.2272 117.555 59.2272C115.194 59.2272 113.607 61.2424 113.607 64.2028C113.607 67.1907 115.194 69.1916 117.555 69.1916C119.957 69.1916 121.531 67.2323 121.531 64.2028V64.203ZM141.268 64.203C141.268 68.8108 138.765 71.7712 134.988 71.7712C134.031 71.8205 133.08 71.6034 132.242 71.1446C131.405 70.6858 130.716 70.0039 130.254 69.177H130.182V76.5215H127.093V56.7881H130.083V59.2544H130.14C130.623 58.4315 131.324 57.7531 132.168 57.2915C133.012 56.8299 133.967 56.6023 134.931 56.633C138.75 56.633 141.268 59.6079 141.268 64.2028V64.203ZM138.093 64.203C138.093 61.2009 136.519 59.2272 134.116 59.2272C131.756 59.2272 130.169 61.2424 130.169 64.2028C130.169 67.1907 131.756 69.1916 134.116 69.1916C136.519 69.1916 138.093 67.2323 138.093 64.2028V64.203ZM152.213 65.9495C152.442 67.9663 154.43 69.2906 157.147 69.2906C159.75 69.2906 161.624 67.9663 161.624 66.1477C161.624 64.5691 160.494 63.6239 157.819 62.9761L155.144 62.3412C151.354 61.4391 149.595 59.6925 149.595 56.8583C149.595 53.3492 152.698 50.939 157.103 50.939C161.466 50.939 164.456 53.3492 164.556 56.8583H161.439C161.252 54.8288 159.549 53.6035 157.061 53.6035C154.573 53.6035 152.87 54.8432 152.87 56.6472C152.87 58.0852 153.958 58.9313 156.618 59.5789L158.892 60.1292C163.126 61.1159 164.884 62.7922 164.884 65.7669C164.884 69.572 161.81 71.9552 156.918 71.9552C152.341 71.9552 149.251 69.6279 149.051 65.9494L152.213 65.9495ZM171.553 53.2791V56.7881H174.415V59.1984H171.553V67.3729C171.553 68.6429 172.126 69.2346 173.384 69.2346C173.724 69.2288 174.063 69.2053 174.4 69.1642V71.5603C173.835 71.6643 173.26 71.7114 172.685 71.7008C169.638 71.7008 168.45 70.5734 168.45 67.6976V59.1984H166.262V56.7881H168.45V53.2791H171.553ZM176.071 64.203C176.071 59.5374 178.859 56.6058 183.207 56.6058C187.57 56.6058 190.346 59.5374 190.346 64.203C190.346 68.8812 187.585 71.8001 183.207 71.8001C178.831 71.8001 176.071 68.8812 176.071 64.203ZM187.198 64.203C187.198 61.0026 185.71 59.1136 183.207 59.1136C180.704 59.1136 179.216 61.0168 179.216 64.203C179.216 67.4162 180.704 69.2906 183.207 69.2906C185.71 69.2906 187.198 67.4162 187.198 64.203ZM192.892 56.7881H195.838V59.3119H195.909C196.109 58.5237 196.577 57.827 197.237 57.3392C197.896 56.8513 198.705 56.6019 199.529 56.633C199.885 56.6317 200.24 56.6698 200.587 56.7465V59.5934C200.138 59.4581 199.669 59.396 199.199 59.4095C198.751 59.3916 198.303 59.4695 197.888 59.638C197.473 59.8065 197.1 60.0616 196.794 60.3857C196.488 60.7098 196.257 61.0953 196.117 61.5157C195.976 61.936 195.93 62.3814 195.981 62.821V71.6161H192.892V56.7881ZM214.828 67.2609C214.412 69.9528 211.752 71.8001 208.349 71.8001C203.971 71.8001 201.254 68.91 201.254 64.2733C201.254 59.6223 203.986 56.6058 208.219 56.6058C212.382 56.6058 215 59.4239 215 63.9198V64.9626H204.372V65.1465C204.323 65.6923 204.392 66.242 204.576 66.7593C204.759 67.2766 205.051 67.7496 205.434 68.1469C205.817 68.5441 206.281 68.8565 206.796 69.0634C207.311 69.2703 207.865 69.3668 208.42 69.3467C209.15 69.414 209.883 69.2474 210.509 68.8717C211.135 68.4959 211.621 67.9309 211.895 67.2609H214.828ZM204.387 62.8354H211.91C211.938 62.3448 211.862 61.8537 211.688 61.3932C211.514 60.9326 211.245 60.5124 210.899 60.159C210.552 59.8056 210.135 59.5267 209.674 59.3396C209.213 59.1525 208.718 59.0614 208.219 59.072C207.716 59.069 207.217 59.1642 206.752 59.3522C206.286 59.5401 205.863 59.817 205.507 60.1669C205.151 60.5168 204.868 60.9327 204.676 61.3908C204.484 61.8488 204.385 62.3398 204.387 62.8354ZM95.8978 35.9695C96.5454 35.9237 97.1952 36.0201 97.8003 36.2517C98.4055 36.4833 98.951 36.8444 99.3974 37.309C99.8438 37.7735 100.18 38.3299 100.382 38.938C100.584 39.546 100.646 40.1907 100.564 40.8253C100.564 43.9473 98.8517 45.742 95.8978 45.742H92.3156V35.9693L95.8978 35.9695ZM93.856 44.3599H95.7258C96.1885 44.3871 96.6515 44.3123 97.0812 44.141C97.5109 43.9696 97.8964 43.706 98.2097 43.3693C98.5229 43.0327 98.7561 42.6314 98.8921 42.1948C99.0282 41.7581 99.0637 41.2971 98.9962 40.8452C99.0588 40.395 99.0197 39.9368 98.8816 39.5034C98.7434 39.0699 98.5097 38.672 98.1971 38.338C97.8846 38.004 97.5009 37.7422 97.0737 37.5715C96.6464 37.4008 96.1861 37.3253 95.7258 37.3504H93.856V44.3599ZM102.304 42.0512C102.257 41.5666 102.313 41.0776 102.469 40.6156C102.625 40.1536 102.877 39.7289 103.21 39.3686C103.542 39.0083 103.947 38.7204 104.399 38.5234C104.851 38.3265 105.339 38.2247 105.833 38.2247C106.327 38.2247 106.816 38.3265 107.268 38.5234C107.72 38.7204 108.125 39.0083 108.457 39.3686C108.789 39.7289 109.042 40.1536 109.198 40.6156C109.354 41.0776 109.41 41.5666 109.363 42.0512C109.411 42.5364 109.355 43.0262 109.2 43.489C109.044 43.9519 108.792 44.3775 108.46 44.7386C108.128 45.0997 107.722 45.3883 107.27 45.5857C106.817 45.7832 106.328 45.8852 105.833 45.8852C105.339 45.8852 104.849 45.7832 104.397 45.5857C103.945 45.3883 103.539 45.0997 103.207 44.7386C102.875 44.3775 102.622 43.9519 102.467 43.489C102.312 43.0262 102.256 42.5364 102.304 42.0512ZM107.844 42.0512C107.844 40.4526 107.115 39.5177 105.836 39.5177C104.552 39.5177 103.83 40.4526 103.83 42.0512C103.83 43.6627 104.552 44.5903 105.836 44.5903C107.115 44.5903 107.844 43.6563 107.844 42.0512ZM118.746 45.7418H117.214L115.667 40.3103H115.55L114.01 45.7418H112.492L110.429 38.3669H111.927L113.268 43.9943H113.378L114.917 38.3669H116.334L117.873 43.9943H117.99L119.324 38.3669H120.801L118.746 45.7418ZM122.536 38.367H123.958V39.5385H124.068C124.255 39.1177 124.571 38.765 124.971 38.5294C125.372 38.2939 125.837 38.1873 126.301 38.2245C126.666 38.1976 127.031 38.2517 127.371 38.3829C127.711 38.514 128.017 38.7189 128.266 38.9824C128.515 39.2458 128.7 39.561 128.808 39.9046C128.917 40.2483 128.945 40.6115 128.892 40.9675V45.7417H127.415V41.3331C127.415 40.148 126.892 39.5585 125.8 39.5585C125.553 39.5472 125.306 39.5887 125.076 39.6801C124.847 39.7715 124.64 39.9108 124.47 40.0883C124.301 40.2658 124.172 40.4774 124.093 40.7085C124.014 40.9396 123.987 41.1849 124.013 41.4274V45.7418H122.536V38.367ZM131.245 35.4879H132.722V45.7418H131.245V35.4879ZM134.775 42.0512C134.728 41.5665 134.785 41.0774 134.941 40.6154C135.097 40.1534 135.349 39.7286 135.681 39.3682C136.014 39.0079 136.419 38.72 136.87 38.523C137.322 38.326 137.811 38.2242 138.305 38.2242C138.799 38.2242 139.288 38.326 139.74 38.523C140.192 38.72 140.597 39.0079 140.929 39.3682C141.262 39.7286 141.514 40.1534 141.67 40.6154C141.826 41.0774 141.882 41.5665 141.835 42.0512C141.883 42.5364 141.827 43.026 141.672 43.4887C141.516 43.9514 141.264 44.3768 140.931 44.7378C140.599 45.0987 140.194 45.3872 139.741 45.5845C139.289 45.7819 138.8 45.8839 138.305 45.8839C137.811 45.8839 137.321 45.7819 136.869 45.5845C136.417 45.3872 136.011 45.0987 135.679 44.7378C135.347 44.3768 135.094 43.9514 134.939 43.4887C134.783 43.026 134.728 42.5364 134.775 42.0512ZM140.315 42.0512C140.315 40.4526 139.586 39.5177 138.307 39.5177C137.023 39.5177 136.301 40.4526 136.301 42.0512C136.301 43.6627 137.023 44.5903 138.307 44.5903C139.586 44.5903 140.315 43.6563 140.315 42.0512ZM143.39 43.6563C143.39 42.3287 144.393 41.5633 146.173 41.4546L148.201 41.3394V40.7028C148.201 39.9239 147.678 39.4842 146.669 39.4842C145.844 39.4842 145.273 39.7824 145.109 40.3039H143.679C143.83 39.037 145.039 38.2247 146.737 38.2247C148.613 38.2247 149.671 39.1451 149.671 40.7028V45.7418H148.249V44.7054H148.132C147.895 45.0772 147.562 45.3803 147.167 45.5837C146.772 45.7871 146.33 45.8836 145.885 45.8634C145.57 45.8955 145.253 45.8625 144.952 45.7664C144.652 45.6702 144.375 45.5131 144.14 45.3052C143.905 45.0973 143.717 44.8431 143.588 44.5591C143.459 44.2751 143.391 43.9675 143.39 43.6563ZM148.201 43.026V42.4094L146.373 42.5245C145.342 42.5925 144.875 42.9381 144.875 43.5881C144.875 44.2519 145.459 44.6383 146.263 44.6383C146.498 44.6618 146.736 44.6383 146.962 44.5694C147.188 44.5005 147.398 44.3874 147.579 44.237C147.759 44.0866 147.908 43.9019 148.014 43.6938C148.121 43.4858 148.185 43.2587 148.201 43.026ZM151.612 42.0512C151.612 39.7208 152.828 38.2447 154.719 38.2447C155.187 38.2234 155.651 38.3338 156.057 38.5629C156.464 38.792 156.796 39.1304 157.014 39.5385H157.124V35.4878H158.601V45.7417H157.186V44.5764H157.069C156.834 44.9817 156.491 45.3159 156.076 45.5427C155.662 45.7695 155.193 45.8804 154.719 45.8632C152.815 45.8632 151.612 44.3869 151.612 42.0511V42.0512ZM153.138 42.0512C153.138 43.6153 153.886 44.5567 155.138 44.5567C156.382 44.5567 157.152 43.6019 157.152 42.0575C157.152 40.5205 156.374 39.5521 155.138 39.5521C153.894 39.5521 153.138 40.4997 153.138 42.0512ZM164.712 42.0512C164.665 41.5666 164.721 41.0776 164.877 40.6156C165.033 40.1536 165.286 39.7289 165.618 39.3686C165.95 39.0083 166.355 38.7204 166.807 38.5234C167.259 38.3265 167.747 38.2247 168.242 38.2247C168.736 38.2247 169.224 38.3265 169.676 38.5234C170.128 38.7204 170.533 39.0083 170.865 39.3686C171.198 39.7289 171.45 40.1536 171.606 40.6156C171.762 41.0776 171.818 41.5666 171.771 42.0512C171.819 42.5364 171.763 43.0262 171.608 43.489C171.452 43.9519 171.2 44.3775 170.868 44.7386C170.536 45.0997 170.13 45.3883 169.678 45.5857C169.226 45.7832 168.736 45.8852 168.242 45.8852C167.747 45.8852 167.258 45.7832 166.805 45.5857C166.353 45.3883 165.947 45.0997 165.615 44.7386C165.283 44.3775 165.031 43.9519 164.875 43.489C164.72 43.0262 164.664 42.5364 164.712 42.0512ZM170.252 42.0512C170.252 40.4526 169.523 39.5177 168.244 39.5177C166.96 39.5177 166.238 40.4526 166.238 42.0512C166.238 43.6627 166.96 44.5903 168.244 44.5903C169.523 44.5903 170.252 43.6563 170.252 42.0512ZM173.753 38.367H175.175V39.5385H175.285C175.472 39.1177 175.788 38.765 176.188 38.5294C176.589 38.2939 177.054 38.1873 177.518 38.2245C177.882 38.1976 178.248 38.2517 178.588 38.3829C178.928 38.514 179.234 38.7189 179.483 38.9824C179.732 39.2458 179.917 39.561 180.025 39.9046C180.134 40.2483 180.162 40.6115 180.109 40.9675V45.7417H178.632V41.3331C178.632 40.148 178.109 39.5585 177.017 39.5585C176.77 39.5472 176.523 39.5887 176.293 39.6801C176.064 39.7715 175.857 39.9108 175.687 40.0883C175.518 40.2658 175.389 40.4774 175.31 40.7085C175.231 40.9396 175.204 41.1849 175.23 41.4274V45.7418H173.753L173.753 38.367ZM188.455 36.5309V38.4006H190.076V39.6265H188.455V43.4186C188.455 44.1912 188.778 44.5295 189.513 44.5295C189.701 44.5289 189.889 44.5176 190.076 44.4958V45.7083C189.811 45.755 189.542 45.7799 189.273 45.7826C187.63 45.7826 186.976 45.2131 186.976 43.7914V39.6265H185.788V38.4004H186.976V36.5311L188.455 36.5309ZM192.094 35.4879H193.558V39.5521H193.674C193.871 39.1274 194.195 38.7726 194.604 38.5362C195.012 38.2998 195.484 38.1932 195.956 38.2309C196.319 38.2115 196.681 38.2711 197.017 38.4055C197.353 38.5398 197.655 38.7457 197.901 39.0083C198.148 39.2709 198.332 39.5838 198.441 39.9247C198.551 40.2656 198.582 40.6261 198.534 40.9804V45.7418H197.055V41.3394C197.055 40.1614 196.499 39.5649 195.455 39.5649C195.201 39.5444 194.946 39.5788 194.707 39.6657C194.468 39.7526 194.251 39.8899 194.072 40.068C193.892 40.2461 193.754 40.4606 193.668 40.6967C193.581 40.9327 193.548 41.1846 193.571 41.4346V45.7418H192.094V35.4879ZM207.146 43.7504C206.945 44.4245 206.511 45.0075 205.918 45.3976C205.325 45.7877 204.612 45.9599 203.903 45.8841C203.41 45.897 202.92 45.8039 202.467 45.6114C202.014 45.419 201.609 45.1317 201.28 44.7695C200.951 44.4073 200.706 43.9789 200.562 43.5141C200.418 43.0492 200.378 42.5591 200.446 42.0776C200.38 41.5946 200.421 41.1034 200.564 40.6371C200.708 40.1709 200.952 39.7405 201.279 39.3751C201.606 39.0098 202.009 38.7179 202.461 38.5194C202.913 38.3209 203.402 38.2204 203.897 38.2245C205.979 38.2245 207.235 39.6265 207.235 41.9423V42.4502H201.951V42.5318C201.927 42.8024 201.962 43.0748 202.052 43.3315C202.142 43.5882 202.285 43.8236 202.473 44.0225C202.661 44.2214 202.888 44.3795 203.142 44.4866C203.395 44.5937 203.668 44.6475 203.944 44.6445C204.297 44.6863 204.655 44.6236 204.972 44.4644C205.289 44.3052 205.551 44.0567 205.724 43.7504H207.146ZM201.951 41.3738H205.731C205.749 41.1263 205.715 40.8777 205.63 40.644C205.546 40.4102 205.412 40.1965 205.239 40.0166C205.065 39.8367 204.856 39.6945 204.623 39.5992C204.391 39.504 204.14 39.4577 203.888 39.4634C203.633 39.4602 203.38 39.5074 203.143 39.6023C202.906 39.6972 202.691 39.8379 202.511 40.0159C202.33 40.194 202.187 40.4058 202.091 40.6391C201.995 40.8723 201.947 41.1221 201.951 41.3738Z" fill="#252B33"/>
<defs>
<filter id="filter0_d_223_7438" x="0" y="0" width="265" height="120" filterUnits="userSpaceOnUse" color-interpolation-filters="sRGB">
<feFlood flood-opacity="0" result="BackgroundImageFix"/>
<feColorMatrix in="SourceAlpha" type="matrix" values="0 0 0 0 0 0 0 0 0 0 0 0 0 0 0 0 0 0 127 0" result="hardAlpha"/>
<feOffset dy="4"/>
<feGaussianBlur stdDeviation="15"/>
<feComposite in2="hardAlpha" operator="out"/>
<feColorMatrix type="matrix" values="0 0 0 0 0 0 0 0 0 0 0 0 0 0 0 0 0 0 0.05 0"/>
<feBlend mode="normal" in2="BackgroundImageFix" result="effect1_dropShadow_223_7438"/>
<feBlend mode="normal" in="SourceGraphic" in2="effect1_dropShadow_223_7438" result="shape"/>
</filter>
</defs>
</svg>
