<svg width="20" height="20" viewBox="0 0 20 20" fill="none" xmlns="http://www.w3.org/2000/svg">
<path d="M19.2 0H0.8C0.3575 0 0 0.3575 0 0.8V19.2C0 19.6425 0.3575 20 0.8 20H19.2C19.6425 20 20 19.6425 20 19.2V0.8C20 0.3575 19.6425 0 19.2 0ZM10.9125 12.77C9.815 14.315 7.61 14.765 5.89 14.1025C4.165 13.445 2.94 11.6225 3.0875 9.765C3.125 7.4925 5.2175 5.5 7.49 5.5775C8.58 5.5275 9.605 6 10.44 6.6675C10.0825 7.0725 9.715 7.4625 9.32 7.825C8.3175 7.1325 6.89 6.935 5.8875 7.735C4.4525 8.7275 4.3875 11.07 5.7675 12.1375C7.11 13.355 9.6475 12.75 10.02 10.885C9.18 10.8725 8.335 10.885 7.495 10.8575C7.4925 10.355 7.49 9.855 7.4925 9.3525C8.8975 9.3475 10.305 9.345 11.7125 9.3575C11.795 10.54 11.6375 11.795 10.9125 12.77ZM16.975 10.6125C16.555 10.6175 16.135 10.62 15.715 10.6225C15.71 11.0425 15.7075 11.4625 15.7075 11.8825H14.45C14.445 11.4625 14.445 11.045 14.4425 10.625C14.0225 10.62 13.6025 10.6175 13.1825 10.6125V9.36C13.6025 9.355 14.0225 9.3525 14.4425 9.3525C14.445 8.9325 14.45 8.5125 14.4525 8.0925H15.7075L15.715 9.3525C16.135 9.3575 16.555 9.3575 16.975 9.36V10.6125Z" fill="#0EA2EE"/>
</svg>
