<svg width="265" height="120" viewBox="0 0 265 120" fill="none" xmlns="http://www.w3.org/2000/svg">
<g filter="url(#filter0_d_223_7416)">
<rect x="30" y="26" width="205" height="60" rx="10" fill="white"/>
</g>
<path fill-rule="evenodd" clip-rule="evenodd" d="M143.823 76.4026C143.064 75.7961 142.458 74.7348 142.155 74.1283L144.581 73.0669C144.732 73.3702 145.036 73.825 145.339 74.2799C145.945 74.8864 146.855 75.4929 147.765 75.4929C148.675 75.4929 149.736 75.038 150.342 74.2799C150.797 73.5218 151.101 72.7637 151.101 71.7023V70.7925C149.281 73.0669 145.49 72.7637 143.368 70.3377C141.093 67.9117 141.093 63.8178 143.368 61.3918C145.642 59.1174 148.978 58.8142 150.949 60.9369V59.8755H153.527V71.2474C153.527 74.1283 152.465 75.7961 151.101 76.8575C150.191 77.6156 148.826 77.9189 147.613 77.9189C146.249 77.7673 144.884 77.3124 143.823 76.4026ZM207.353 77.0091L209.931 70.9442L205.382 60.482H207.96L211.144 67.9117L214.328 60.482H216.906L209.931 77.0091H207.353ZM195.072 71.2474C194.314 70.4893 194.01 69.4279 194.01 68.3665C194.01 67.4568 194.314 66.547 194.92 65.9405C195.981 64.8792 197.498 64.4243 199.166 64.4243C200.227 64.4243 201.137 64.5759 201.895 65.0308C201.895 63.2113 200.379 62.4532 199.166 62.4532C198.104 62.4532 197.043 63.0597 196.588 64.121L194.314 63.2113C194.768 62.1499 195.981 60.1788 199.014 60.1788C200.53 60.1788 202.046 60.6337 202.956 61.695C203.866 62.7564 204.169 63.9694 204.169 65.6373V72.0055H201.592V70.9442C201.288 71.399 200.682 71.7023 200.227 72.0055C199.62 72.3088 198.862 72.4604 198.104 72.4604C197.194 72.3088 195.83 72.0055 195.072 71.2474ZM114.256 65.7889C114.256 62.7564 116.53 59.4207 120.624 59.4207C124.566 59.4207 126.992 62.7564 126.992 65.7889C126.992 68.8214 124.718 72.1572 120.624 72.1572C116.53 72.1572 114.256 68.8214 114.256 65.7889ZM127.902 65.7889C127.902 62.7564 130.176 59.4207 134.27 59.4207C138.212 59.4207 140.638 62.7564 140.638 65.7889C140.638 68.8214 138.364 72.1572 134.27 72.1572C130.328 72.1572 127.902 68.8214 127.902 65.7889ZM97.1221 69.1247C93.3315 65.334 93.4831 59.1174 97.2738 55.1752C99.2449 53.2041 101.671 52.2943 104.249 52.2943C106.675 52.2943 109.1 53.2041 110.92 55.0236L109.1 56.9947C106.371 54.2654 101.974 54.4171 99.3965 57.1463C96.6673 60.0272 96.6673 64.4243 99.3965 67.3052C102.126 70.186 106.674 70.3377 109.404 67.4568C110.313 66.547 110.617 65.334 110.768 64.121H104.4V61.3918H113.346C113.498 61.9983 113.498 62.7564 113.498 63.5145C113.498 65.7889 112.588 68.0633 111.072 69.5795C109.404 71.2474 106.978 72.1572 104.552 72.1572C101.823 72.0055 99.0933 71.0958 97.1221 69.1247ZM161.259 70.186C158.985 67.76 158.985 63.6662 161.259 61.0885C163.534 58.6625 167.324 58.6625 169.447 61.0885C170.205 61.8467 170.66 62.908 171.115 63.9694L162.776 67.4568C163.231 68.5182 164.292 69.4279 165.808 69.4279C167.173 69.4279 168.083 68.973 168.992 67.6084L171.267 69.1247C170.963 69.4279 170.66 69.7312 170.509 70.0344C167.931 72.612 163.534 72.612 161.259 70.186ZM177.028 72.0055V55.1752H182.487C185.671 55.1752 188.249 57.4496 188.249 60.1788C188.249 62.908 185.974 65.1824 183.093 65.1824H179.758V71.8539H177.028V72.0055ZM189.765 72.0055V55.1752H192.342V72.0055H189.765ZM155.498 71.7023V52.9008H158.227V71.7023H155.498ZM201.743 67.0019C201.137 66.547 200.227 66.3954 199.317 66.3954C197.498 66.3954 196.436 67.3052 196.436 68.3665C196.436 69.4279 197.498 70.0344 198.559 70.0344C200.075 70.0344 201.743 68.8214 201.743 67.0019ZM124.111 65.7889C124.111 63.9694 122.898 61.9983 120.624 61.9983C118.35 61.9983 117.137 63.9694 117.137 65.7889C117.137 67.6084 118.35 69.5795 120.624 69.5795C122.747 69.5795 124.111 67.6084 124.111 65.7889ZM137.758 65.7889C137.758 63.9694 136.545 61.9983 134.27 61.9983C131.996 61.9983 130.783 63.9694 130.783 65.7889C130.783 67.6084 131.996 69.5795 134.27 69.5795C136.545 69.5795 137.758 67.6084 137.758 65.7889ZM151.252 66.8503C151.252 66.6987 151.252 66.547 151.404 66.3954C151.404 66.2438 151.404 65.9405 151.404 65.7889C151.404 65.6373 151.404 65.334 151.404 65.1824V65.0308C151.404 64.8792 151.252 64.5759 151.252 64.4243C150.797 62.908 149.433 61.8467 148.068 61.8467C146.249 61.8467 144.732 63.6662 144.732 65.6373C144.732 67.76 146.249 69.4279 148.22 69.4279C149.433 69.5795 150.646 68.5182 151.252 66.8503ZM162.321 65.4857L167.931 63.0597C167.324 61.9983 166.415 61.695 165.657 61.695C163.382 61.8467 162.018 64.2727 162.321 65.4857ZM185.519 60.3304C185.519 58.8142 184.306 57.7528 182.639 57.7528H179.606V63.0597H182.79C184.306 63.0597 185.519 61.8467 185.519 60.3304Z" fill="#252B33"/>
<path d="M94.9995 40.3161C94.9995 37.5868 96.9706 35.9189 99.3966 35.9189C101.064 35.9189 102.126 36.6771 102.884 37.7384L101.671 38.4966C101.216 37.8901 100.458 37.4352 99.3966 37.4352C97.7287 37.4352 96.5157 38.6482 96.5157 40.4677C96.5157 42.2872 97.7287 43.5002 99.3966 43.5002C100.306 43.5002 101.064 43.0453 101.368 42.7421V41.3774H98.9417V40.0128H103.036V43.1969C102.277 44.1067 101.064 44.7132 99.5482 44.7132C96.9706 44.7132 94.9995 42.8937 94.9995 40.3161Z" fill="#252B33"/>
<path d="M104.855 44.5618V36.0708H110.617V37.4354H106.22V39.5582H110.465V40.9228H106.22V43.3488H110.617V44.7134L104.855 44.5618Z" fill="#252B33"/>
<path d="M114.862 44.5618V37.4354H112.285V36.0708H118.956V37.4354H116.378V44.5618H114.862Z" fill="#252B33"/>
<path d="M124.111 44.5618V36.0708H125.628V44.5618H124.111Z" fill="#252B33"/>
<path d="M129.721 44.5618V37.4354H127.144V36.0708H133.815V37.4354H131.238V44.5618H129.721Z" fill="#252B33"/>
<path d="M138.667 40.3161C138.667 37.7384 140.487 35.9189 143.064 35.9189C145.642 35.9189 147.462 37.7384 147.462 40.3161C147.462 42.8937 145.642 44.7132 143.064 44.7132C140.487 44.7132 138.667 42.7421 138.667 40.3161ZM145.794 40.3161C145.794 38.4966 144.732 37.2836 142.913 37.2836C141.245 37.2836 140.032 38.6482 140.032 40.3161C140.032 42.1356 141.093 43.3486 142.913 43.3486C144.732 43.3486 145.794 41.9839 145.794 40.3161Z" fill="#252B33"/>
<path d="M155.043 44.5618L150.646 38.4968V44.5618H149.129V36.0708H150.646L155.043 41.9842V36.0708H156.559V44.5618H155.043Z" fill="#252B33"/>
<path fill-rule="evenodd" clip-rule="evenodd" d="M48.6902 36.864C48.2519 37.3351 48 38.0601 48 39.0022V72.5129C48 73.455 48.2519 74.1801 48.7066 74.6347L48.8254 74.7351L67.6022 55.9583V55.5364L48.809 36.7637L48.6902 36.864Z" fill="url(#paint0_linear_223_7416)"/>
<path fill-rule="evenodd" clip-rule="evenodd" d="M73.849 62.2409L67.5859 55.9758V55.5375L73.851 49.2725L73.9862 49.3564L81.3961 53.5673C83.518 54.7634 83.518 56.7336 81.3961 57.9461L73.9862 62.1569C73.9841 62.1569 73.849 62.2409 73.849 62.2409Z" fill="url(#paint1_linear_223_7416)"/>
<path fill-rule="evenodd" clip-rule="evenodd" d="M73.984 62.1576L67.5858 55.7573L48.6902 74.6529C49.3804 75.3943 50.5416 75.4783 51.8401 74.7533L73.984 62.1576Z" fill="url(#paint2_linear_223_7416)"/>
<path fill-rule="evenodd" clip-rule="evenodd" d="M73.984 49.3592L51.8401 36.7799C50.5437 36.0385 49.3804 36.1389 48.6902 36.8803L67.5837 55.7574L73.984 49.3592Z" fill="url(#paint3_linear_223_7416)"/>
<path opacity="0.2" fill-rule="evenodd" clip-rule="evenodd" d="M73.8488 62.0225L51.8565 74.5178C50.6276 75.2244 49.5319 75.1752 48.8253 74.5342L48.7065 74.653L48.8253 74.7533C49.5319 75.3923 50.6276 75.4435 51.8565 74.7369L74.0003 62.1576L73.8488 62.0225Z" fill="#252B33"/>
<path opacity="0.12" fill-rule="evenodd" clip-rule="evenodd" d="M81.394 57.7276L73.8325 62.0224L73.9676 62.1576L81.3776 57.9467C82.4385 57.3405 82.9608 56.5499 82.9608 55.7573C82.8932 56.4823 82.3545 57.1725 81.394 57.7276Z" fill="#252B33"/>
<path opacity="0.25" fill-rule="evenodd" clip-rule="evenodd" d="M51.8402 36.9987L81.394 53.7888C82.3545 54.3275 82.8932 55.0341 82.9771 55.7591C82.9771 54.9685 82.4549 54.1759 81.394 53.5697L51.8402 36.7795C49.7183 35.5671 48 36.5768 48 39.0017V39.2208C48 36.7959 49.7183 35.8026 51.8402 36.9987Z" fill="white"/>
<defs>
<filter id="filter0_d_223_7416" x="0" y="0" width="265" height="120" filterUnits="userSpaceOnUse" color-interpolation-filters="sRGB">
<feFlood flood-opacity="0" result="BackgroundImageFix"/>
<feColorMatrix in="SourceAlpha" type="matrix" values="0 0 0 0 0 0 0 0 0 0 0 0 0 0 0 0 0 0 127 0" result="hardAlpha"/>
<feOffset dy="4"/>
<feGaussianBlur stdDeviation="15"/>
<feComposite in2="hardAlpha" operator="out"/>
<feColorMatrix type="matrix" values="0 0 0 0 0 0 0 0 0 0 0 0 0 0 0 0 0 0 0.05 0"/>
<feBlend mode="normal" in2="BackgroundImageFix" result="effect1_dropShadow_223_7416"/>
<feBlend mode="normal" in="SourceGraphic" in2="effect1_dropShadow_223_7416" result="shape"/>
</filter>
<linearGradient id="paint0_linear_223_7416" x1="65.9161" y1="38.642" x2="35.8389" y2="46.6561" gradientUnits="userSpaceOnUse">
<stop stop-color="#00A0FF"/>
<stop offset="0.007" stop-color="#00A1FF"/>
<stop offset="0.26" stop-color="#00BEFF"/>
<stop offset="0.512" stop-color="#00D2FF"/>
<stop offset="0.76" stop-color="#00DFFF"/>
<stop offset="1" stop-color="#00E3FF"/>
</linearGradient>
<linearGradient id="paint1_linear_223_7416" x1="84.1572" y1="55.7576" x2="47.4845" y2="55.7576" gradientUnits="userSpaceOnUse">
<stop stop-color="#FFE000"/>
<stop offset="0.409" stop-color="#FFBD00"/>
<stop offset="0.775" stop-color="#FFA500"/>
<stop offset="1" stop-color="#FF9C00"/>
</linearGradient>
<linearGradient id="paint2_linear_223_7416" x1="70.5048" y1="59.2391" x2="46.3587" y2="99.8785" gradientUnits="userSpaceOnUse">
<stop stop-color="#FF3A44"/>
<stop offset="1" stop-color="#C31162"/>
</linearGradient>
<linearGradient id="paint3_linear_223_7416" x1="43.9337" y1="25.7166" x2="54.706" y2="43.8668" gradientUnits="userSpaceOnUse">
<stop stop-color="#32A071"/>
<stop offset="0.069" stop-color="#2DA771"/>
<stop offset="0.476" stop-color="#15CF74"/>
<stop offset="0.801" stop-color="#06E775"/>
<stop offset="1" stop-color="#00F076"/>
</linearGradient>
</defs>
</svg>
